Coordinates
version=1
nRows=26
nColumns=24
inDegrees=yes

Units are S.I. units (second, meters, Newtons, ...)
Angles are in degrees.

endheader
time	pelvis_tilt	pelvis_list	pelvis_rotation	pelvis_tx	pelvis_ty	pelvis_tz	hip_flexion_r	hip_adduction_r	hip_rotation_r	knee_angle_r	ankle_angle_r	subtalar_angle_r	mtp_angle_r	hip_flexion_l	hip_adduction_l	hip_rotation_l	knee_angle_l	ankle_angle_l	subtalar_angle_l	mtp_angle_l	lumbar_extension	lumbar_bending	lumbar_rotation
      2.39500000	     24.54562858	     -1.19358729	      3.08095332	      0.54571684	      0.84655432	     -0.03072342	    -32.30211734	      1.43565992	    -18.63590857	    -42.57875455	     22.26009081	     12.90471529	     55.25626256	     -6.73300526	      0.25636047	    -10.83976092	    -17.21786318	     11.32494210	      2.93052189	     46.75986221	    -39.06176886	      0.52887111	     -9.99039908
      2.40000000	     24.51000268	     -0.84893231	      3.03739680	      0.55134816	      0.84706888	     -0.03124013	    -31.59481868	      0.71863541	    -18.89824691	    -44.56415755	     20.87215384	     12.12132241	     57.43810694	     -7.05014968	      0.67903954	    -10.51726317	    -17.46164223	     11.72398195	      2.81568064	     45.79619061	    -38.99885129	      0.14264806	    -10.19724562
      2.40500000	     24.44517473	     -0.55701180	      2.96149161	      0.55691950	      0.84756787	     -0.03167820	    -30.82846714	      0.05848069	    -19.01563750	    -46.50054180	     19.69924505	     11.30947224	     57.46423829	     -7.35180852	      1.03778725	    -10.31930713	    -17.65642855	     12.11096254	      2.80733108	     45.71443065	    -38.90930759	     -0.20978478	    -10.29626359
      2.41000000	     24.34930599	     -0.29738551	      2.93127658	      0.56244807	      0.84805611	     -0.03217486	    -30.03058230	     -0.52692798	    -19.09327229	    -48.30681074	     18.58171625	     10.38281241	     57.62615222	     -7.63787175	      1.36861644	    -10.05368991	    -17.78955347	     12.57395398	      2.64587480	     45.50151356	    -38.78909742	     -0.50409133	    -10.44988395
      2.41500000	     24.28782300	     -0.03601418	      2.90596541	      0.56796684	      0.84861690	     -0.03269103	    -29.28011596	     -1.10192249	    -19.17149914	    -49.98631873	     17.60042886	      9.42718514	     57.73430100	     -7.99650697	      1.69357678	     -9.86749809	    -17.84637781	     12.98831251	      2.63770962	     45.24586517	    -38.70545476	     -0.78826630	    -10.58521517
      2.42000000	     24.22855861	      0.20059033	      2.89363943	      0.57344715	      0.84921075	     -0.03320205	    -28.53463892	     -1.62557941	    -19.21805466	    -51.54041604	     16.79981941	      8.43155828	     57.67479102	     -8.37614398	      1.98219084	     -9.73292179	    -17.85251606	     13.39140499	      2.72961705	     45.00019973	    -38.62678124	     -1.03933268	    -10.71116024
      2.42500000	     24.17158470	      0.38867065	      2.91020018	      0.57889190	      0.84981213	     -0.03371889	    -27.79622911	     -2.06618391	    -19.24882156	    -52.97169269	     16.24436435	      7.45314964	     56.82269229	     -8.74483501	      2.19441088	     -9.67543171	    -17.90519863	     14.01328962	      3.18997555	     43.27739073	    -38.55137722	     -1.22610781	    -10.82690126
      2.43000000	     24.13012709	      0.59659985	      2.90014647	      0.58428345	      0.85047883	     -0.03424088	    -27.07021508	     -2.53095147	    -19.25585085	    -54.29458408	     15.84400499	      6.47403543	     56.62268849	     -9.19246785	      2.44787592	     -9.64002499	    -17.77605034	     14.30671538	      3.32407070	     43.26442119	    -38.49961191	     -1.43683814	    -10.95092343
      2.43500000	     24.06510808	      0.65851825	      2.95389263	      0.58957099	      0.85114258	     -0.03473327	    -26.31126080	     -2.76435155	    -19.19544752	    -55.45922336	     15.70207792	      5.35486007	     54.84752100	     -9.56436794	      2.50234643	     -9.64644156	    -17.74771502	     14.83247927	      3.79648372	     42.82531472	    -38.42581943	     -1.48012297	    -10.99278860
      2.44000000	     24.00793428	      0.74003363	      2.99058088	      0.59478160	      0.85181781	     -0.03525702	    -25.55279501	     -3.02358684	    -19.13992773	    -56.53947076	     15.79596408	      4.31758411	     53.33298463	     -9.97091223	      2.59352828	     -9.66738112	    -17.63886952	     15.23569317	      4.10679626	     42.42371051	    -38.36963672	     -1.53811685	    -11.05529266
      2.44500000	     23.94214417	      0.77045869	      3.01744825	      0.59994120	      0.85252073	     -0.03573209	    -24.77425442	     -3.21204608	    -19.03875670	    -57.49943429	     16.02500383	      3.30661731	     51.85298701	    -10.37042503	      2.62055467	     -9.77566645	    -17.51350292	     15.62548632	      4.53175842	     42.09835703	    -38.30573638	     -1.55213830	    -11.08641139
      2.45000000	     23.87619912	      0.74878574	      3.06682538	      0.60495280	      0.85322278	     -0.03623601	    -23.98167687	     -3.31905856	    -18.94106511	    -58.33421808	     16.33620806	      2.17083403	     51.04297961	    -10.73697969	      2.58966564	     -9.86734593	    -17.43088471	     16.02091608	      4.78417429	     41.98968456	    -38.25660630	     -1.49783512	    -11.07182511
      2.45500000	     23.81663465	      0.73495024	      3.11267320	      0.60998272	      0.85393583	     -0.03670017	    -23.20329932	     -3.42955651	    -18.87061881	    -59.08779767	     16.92126413	      1.36954504	     48.70544394	    -11.14054536	      2.55001137	    -10.03720753	    -17.28268664	     16.38778220	      5.46443977	     41.58267994	    -38.21083101	     -1.45331077	    -11.09226667
      2.46000000	     23.72873623	      0.67265216	      3.16122993	      0.61486834	      0.85461314	     -0.03717411	    -22.36980139	     -3.46998402	    -18.77262397	    -59.73580018	     17.53750832	      0.45461891	     47.09048336	    -11.48524688	      2.46998197	    -10.17471065	    -17.16417269	     16.75348423	      5.87716101	     41.23111572	    -38.14923470	     -1.35506496	    -11.08170229
      2.46500000	     23.61643574	      0.53581822	      3.22552171	      0.61963641	      0.85527017	     -0.03763807	    -21.49474600	     -3.40259052	    -18.64761174	    -60.25416872	     18.16307827	     -0.50972909	     46.28760239	    -11.76960268	      2.30530025	    -10.31488144	    -17.09022598	     17.09205291	      6.17674433	     41.10721112	    -38.07107227	     -1.17445227	    -11.03964210
      2.47000000	     23.53291592	      0.45263633	      3.25485080	      0.62444105	      0.85594588	     -0.03805318	    -20.65752900	     -3.41099359	    -18.56753361	    -60.71667138	     18.96058447	     -1.14863452	     44.16950473	    -12.12132195	      2.19720832	    -10.51982190	    -16.95128518	     17.45919249	      6.79403970	     40.68795984	    -38.02088167	     -1.06250174	    -11.01725311
      2.47500000	     23.37968279	      0.33982142	      3.27778036	      0.62910233	      0.85651736	     -0.03847983	    -19.71720972	     -3.38175673	    -18.46335587	    -61.08819377	     19.68197183	     -1.89703543	     43.91779274	    -12.37146761	      2.08388245	    -10.65957614	    -16.82017495	     17.64976281	      6.93057038	     40.65384014	    -37.91285867	     -0.92042535	    -10.98942328
      2.48000000	     23.29967826	      0.15649235	      3.30958222	      0.63374865	      0.85715198	     -0.03882082	    -18.86877155	     -3.23863427	    -18.34742158	    -61.33004978	     20.54417608	     -2.37903343	     41.56833453	    -12.67942125	      1.85447204	    -10.90640741	    -16.75986131	     18.11579060	      7.62804847	     40.12815711	    -37.87887763	     -0.70776618	    -10.88803798
      2.48500000	     23.08055987	     -0.01483630	      3.34657403	      0.63825556	      0.85760528	     -0.03921001	    -17.83541241	     -3.11337671	    -18.24033879	    -61.52517783	     21.24923174	     -2.91769478	     41.28865088	    -12.81252921	      1.67578489	    -10.98791171	    -16.69279982	     18.33103589	      7.77581625	     40.06614683	    -37.71587446	     -0.50224867	    -10.84931261
      2.49000000	     22.98649322	     -0.21579104	      3.35933010	      0.64284487	      0.85817694	     -0.03949610	    -16.97699820	     -2.93674592	    -18.14499245	    -61.57134639	     22.13599614	     -3.17951166	     39.26207437	    -13.09142985	      1.43708506	    -11.24848630	    -16.64762104	     18.75887446	      8.33454445	     39.45304406	    -37.67234727	     -0.28064778	    -10.74602709
      2.49500000	     22.77767625	     -0.38593392	      3.38611486	      0.64731259	      0.85856359	     -0.03984856	    -15.97176589	     -2.80210101	    -18.09306205	    -61.57504924	     22.87179008	     -3.45271722	     39.12853293	    -13.21771010	      1.25991856	    -11.35353294	    -16.61297340	     18.95147610	      8.46232934	     39.41250630	    -37.52423882	     -0.07613153	    -10.69967922
      2.50000000	     22.64825384	     -0.61997777	      3.38310848	      0.65180607	      0.85902298	     -0.04004593	    -15.06753505	     -2.55949870	    -17.97032197	    -61.44582715	     23.65146954	     -3.53049008	     37.45499600	    -13.43591087	      0.98937248	    -11.58584531	    -16.59381857	     19.39173303	      9.01869911	     38.77687600	    -37.45660433	      0.16588680	    -10.60310229
      2.50500000	     22.40849902	     -0.77839190	      3.39814420	      0.65624702	      0.85928198	     -0.04031829	    -14.03808815	     -2.41869360	    -17.94060816	    -61.29647021	     24.37658808	     -3.53907973	     36.97437985	    -13.51011248	      0.82156474	    -11.67352761	    -16.59913620	     19.64545728	      9.27035663	     38.49666227	    -37.28082049	      0.34805205	    -10.60556628
      2.51000000	     22.25665220	     -1.00188350	      3.37452381	      0.66070912	      0.85964454	     -0.04054567	    -13.12993914	     -2.18928135	    -17.85209432	    -60.97563013	     25.00154753	     -3.42571284	     36.86462063	    -13.70141069	      0.59761449	    -11.82715442	    -16.56084046	     19.92484796	      9.34097541	     38.44315851	    -37.19270460	      0.58252705	    -10.48236748
      2.51500000	     22.09508026	     -1.22843854	      3.34088101	      0.66518845	      0.85993824	     -0.04064075	    -12.22116746	     -1.92967634	    -17.75778496	    -60.58672678	     25.71674984	     -3.17932532	     35.26792827	    -13.86363108	      0.34461595	    -12.03316310	    -16.58938733	     20.35873335	      9.83803860	     37.57855394	    -37.09420330	      0.79898680	    -10.38707162
      2.52000000	     21.91285682	     -1.42080875	      3.33071502	      0.66963622	      0.86015659	     -0.04083751	    -11.30895464	     -1.71595341	    -17.73711969	    -60.10981789	     26.30429231	     -2.86725935	     35.27051520	    -13.99483492	      0.15042894	    -12.11540903	    -16.60624916	     20.62428552	      9.88721164	     37.53303233	    -36.97817274	      1.00709571	    -10.34613547
